<?xml version="1.0" standalone="no"?>
<!DOCTYPE svg PUBLIC "-//W3C//DTD SVG 20010904//EN"
 "http://www.w3.org/TR/2001/REC-SVG-20010904/DTD/svg10.dtd">
<svg version="1.0" xmlns="http://www.w3.org/2000/svg"
 width="1000.000000pt" height="1000.000000pt" viewBox="0 0 1000.000000 1000.000000"
 preserveAspectRatio="xMidYMid meet">
<metadata>
Created by potrace 1.11, written by Peter Selinger 2001-2013
</metadata>
<g transform="translate(0.000000,1000.000000) scale(0.100000,-0.100000)"
fill="#000000" stroke="none">
<path d="M0 5000 l0 -5000 5000 0 5000 0 0 5000 0 5000 -5000 0 -5000 0 0
-5000z m5870 3146 c284 -42 456 -92 645 -186 160 -80 287 -172 420 -305 135
-135 219 -252 296 -410 135 -279 191 -540 191 -895 1 -488 -128 -894 -387
-1225 -215 -274 -548 -485 -954 -604 -57 -17 -112 -31 -122 -31 -10 0 -20 -4
-24 -9 -3 -6 344 -560 771 -1233 427 -673 787 -1240 801 -1260 l23 -38 -837 0
-838 0 -728 1188 c-400 653 -738 1205 -751 1227 l-24 40 -6 -35 c-7 -40 -296
-2391 -296 -2409 0 -8 -184 -11 -715 -11 -673 0 -715 1 -715 17 0 18 745 6098
756 6166 l6 38 1186 -4 c1058 -3 1200 -5 1302 -21z"/>
<path d="M4676 7049 c-4 -12 -216 -1682 -216 -1702 0 -11 359 -8 515 4 169 12
304 38 428 83 140 50 229 106 333 210 76 77 99 107 138 186 102 209 130 487
71 712 -45 172 -169 321 -335 401 -171 82 -309 105 -677 114 -211 5 -253 4
-257 -8z"/>
</g>
</svg>
